<svg width="807" height="864" viewBox="0 0 807 864" fill="none" xmlns="http://www.w3.org/2000/svg">
<g clip-path="url(#clip0)">
<path d="M338.258 296.13C338.8 297.982 338.584 299.972 337.658 301.664C336.731 303.356 335.171 304.611 333.32 305.153L315.87 310.258C314.018 310.8 312.028 310.584 310.336 309.658C308.644 308.732 307.389 307.171 306.847 305.32L338.258 296.13ZM335.195 285.66L303.784 294.85C302.859 295.121 302.078 295.748 301.615 296.594C301.152 297.44 301.044 298.435 301.315 299.361C301.586 300.287 302.213 301.067 303.059 301.53C303.905 301.993 304.901 302.101 305.826 301.83L337.237 292.64C338.162 292.369 338.943 291.742 339.406 290.896C339.869 290.05 339.977 289.055 339.706 288.129C339.435 287.203 338.808 286.423 337.962 285.96C337.116 285.497 336.12 285.389 335.195 285.66ZM326.05 273.18L304.795 279.399C303.444 279.794 302.305 280.71 301.629 281.945C300.953 283.181 300.795 284.634 301.191 285.985L302.763 291.36L334.174 282.17L332.611 276.83C332.42 276.16 332.099 275.533 331.666 274.987C331.232 274.441 330.696 273.985 330.087 273.646C329.477 273.307 328.807 273.092 328.115 273.012C327.422 272.932 326.72 272.989 326.05 273.18ZM310.642 285.266C310.302 285.404 309.928 285.435 309.569 285.357C309.211 285.278 308.885 285.093 308.633 284.825C308.382 284.557 308.218 284.22 308.162 283.857C308.106 283.495 308.162 283.124 308.321 282.793C308.48 282.462 308.735 282.187 309.053 282.004C309.371 281.821 309.737 281.739 310.103 281.768C310.469 281.797 310.817 281.936 311.103 282.167C311.388 282.398 311.597 282.71 311.702 283.061C311.837 283.524 311.783 284.022 311.552 284.445C311.32 284.868 310.93 285.182 310.467 285.317L310.642 285.266ZM324.602 281.182C324.262 281.319 323.888 281.351 323.529 281.272C323.171 281.194 322.845 281.008 322.594 280.741C322.343 280.473 322.178 280.136 322.122 279.773C322.067 279.41 322.122 279.039 322.281 278.709C322.44 278.378 322.695 278.103 323.013 277.92C323.332 277.737 323.698 277.655 324.063 277.684C324.429 277.713 324.778 277.852 325.063 278.083C325.348 278.314 325.557 278.625 325.662 278.977C325.797 279.44 325.743 279.938 325.512 280.361C325.28 280.784 324.89 281.097 324.427 281.233L324.602 281.182Z" fill="#E2F0FA"/>
</g>
<g clip-path="url(#clip1)">
<path d="M782.449 402.704C781.367 404.301 779.695 405.403 777.801 405.767C775.907 406.131 773.945 405.728 772.348 404.646L757.296 394.449C755.699 393.367 754.597 391.695 754.233 389.801C753.869 387.907 754.272 385.945 755.354 384.348L782.449 402.704ZM788.567 393.673L761.472 375.317C760.674 374.776 759.693 374.574 758.746 374.756C757.799 374.938 756.963 375.489 756.422 376.288C755.881 377.086 755.68 378.067 755.862 379.014C756.044 379.961 756.595 380.797 757.393 381.338L784.488 399.694C785.287 400.235 786.267 400.436 787.214 400.254C788.161 400.072 788.997 399.521 789.538 398.723C790.079 397.924 790.281 396.944 790.099 395.997C789.917 395.05 789.366 394.214 788.567 393.673ZM792.36 378.673L774.026 366.252C772.86 365.463 771.428 365.168 770.046 365.434C768.663 365.7 767.442 366.504 766.653 367.67L763.512 372.306L790.607 390.662L793.727 386.056C794.122 385.481 794.4 384.835 794.545 384.153C794.69 383.471 794.7 382.767 794.573 382.081C794.446 381.396 794.185 380.742 793.805 380.157C793.426 379.572 792.935 379.068 792.36 378.673ZM773.228 374.497C772.905 374.322 772.643 374.054 772.475 373.728C772.307 373.401 772.243 373.032 772.289 372.668C772.335 372.304 772.49 371.962 772.734 371.688C772.978 371.414 773.3 371.22 773.656 371.132C774.012 371.044 774.387 371.065 774.73 371.194C775.074 371.323 775.371 371.553 775.581 371.853C775.792 372.154 775.907 372.511 775.911 372.878C775.914 373.245 775.807 373.604 775.603 373.909C775.332 374.308 774.914 374.584 774.441 374.675C773.967 374.766 773.477 374.665 773.078 374.395L773.228 374.497ZM785.27 382.655C784.948 382.48 784.685 382.212 784.517 381.886C784.35 381.559 784.285 381.19 784.331 380.826C784.377 380.462 784.533 380.12 784.777 379.846C785.021 379.572 785.342 379.378 785.698 379.29C786.054 379.202 786.429 379.224 786.772 379.352C787.116 379.481 787.413 379.711 787.623 380.011C787.834 380.312 787.949 380.669 787.953 381.036C787.957 381.403 787.849 381.762 787.645 382.067C787.375 382.466 786.957 382.742 786.483 382.833C786.009 382.924 785.519 382.823 785.12 382.553L785.27 382.655Z" fill="#E2F0FA"/>
</g>
<g clip-path="url(#clip2)">
<path d="M47.3636 781.091C47.3636 783.02 46.5974 784.87 45.2335 786.233C43.8696 787.597 42.0198 788.364 40.0909 788.364H21.9091C19.9802 788.364 18.1304 787.597 16.7665 786.233C15.4026 784.87 14.6364 783.02 14.6364 781.091H47.3636ZM47.3636 770.182H14.6364C13.6719 770.182 12.747 770.565 12.0651 771.247C11.3831 771.929 11 772.854 11 773.818C11 774.783 11.3831 775.708 12.0651 776.389C12.747 777.071 13.6719 777.455 14.6364 777.455H47.3636C48.3281 777.455 49.253 777.071 49.9349 776.389C50.6169 775.708 51 774.783 51 773.818C51 772.854 50.6169 771.929 49.9349 771.247C49.253 770.565 48.3281 770.182 47.3636 770.182ZM42.0909 755.636H19.9455C18.5374 755.636 17.187 756.196 16.1914 757.191C15.1957 758.187 14.6364 759.537 14.6364 760.945V766.545H47.3636V760.982C47.3684 760.285 47.2358 759.593 46.9735 758.947C46.7111 758.301 46.324 757.713 45.8344 757.217C45.3448 756.721 44.7622 756.326 44.1199 756.054C43.4776 755.783 42.7881 755.641 42.0909 755.636ZM23.9091 762.909C23.544 762.946 23.1763 762.871 22.8544 762.695C22.5324 762.519 22.2714 762.249 22.1055 761.922C21.9396 761.595 21.8766 761.225 21.9249 760.861C21.9732 760.497 22.1304 760.156 22.3759 759.884C22.6213 759.611 22.9436 759.419 23.3003 759.333C23.6571 759.246 24.0315 759.27 24.3744 759.401C24.7174 759.532 25.0128 759.763 25.2218 760.064C25.4308 760.366 25.5436 760.724 25.5455 761.091C25.5455 761.573 25.3539 762.036 25.0129 762.377C24.6719 762.718 24.2095 762.909 23.7273 762.909H23.9091ZM38.4545 762.909C38.0894 762.946 37.7217 762.871 37.3998 762.695C37.0779 762.519 36.8168 762.249 36.651 761.922C36.4851 761.595 36.4221 761.225 36.4704 760.861C36.5186 760.497 36.6758 760.156 36.9213 759.884C37.1668 759.611 37.4891 759.419 37.8458 759.333C38.2025 759.246 38.5769 759.27 38.9199 759.401C39.2628 759.532 39.5582 759.763 39.7672 760.064C39.9762 760.366 40.0891 760.724 40.0909 761.091C40.0909 761.573 39.8994 762.036 39.5584 762.377C39.2174 762.718 38.7549 762.909 38.2727 762.909H38.4545Z" fill="#E2F0FA"/>
</g>
<path d="M729.362 124.268C728.3 125.878 726.642 127.001 724.753 127.389C722.863 127.777 720.897 127.398 719.287 126.336L704.108 116.328C702.497 115.266 701.375 113.608 700.987 111.718C700.599 109.829 700.978 107.863 702.039 106.253L729.362 124.268ZM735.367 115.161L708.044 97.145C707.239 96.6141 706.256 96.4248 705.312 96.6188C704.367 96.8127 703.538 97.374 703.007 98.1791C702.476 98.9843 702.287 99.9674 702.481 100.912C702.675 101.857 703.236 102.686 704.041 103.217L731.363 121.232C732.169 121.763 733.152 121.952 734.096 121.758C735.041 121.565 735.87 121.003 736.401 120.198C736.932 119.393 737.121 118.41 736.927 117.465C736.733 116.52 736.172 115.691 735.367 115.161ZM738.972 100.115L720.484 87.9242C719.308 87.1491 717.873 86.8728 716.494 87.1559C715.114 87.439 713.904 88.2585 713.129 89.434L710.046 94.1092L737.369 112.125L740.431 107.48C740.819 106.9 741.089 106.25 741.225 105.567C741.362 104.883 741.362 104.179 741.227 103.495C741.091 102.811 740.823 102.161 740.436 101.581C740.049 101.001 739.551 100.502 738.972 100.115ZM719.789 96.1778C719.464 96.0074 719.198 95.7427 719.027 95.4184C718.855 95.0941 718.785 94.7254 718.827 94.3608C718.869 93.9962 719.02 93.6528 719.26 93.3756C719.501 93.0985 719.82 92.9006 720.175 92.808C720.53 92.7154 720.905 92.7325 721.25 92.8569C721.595 92.9813 721.894 93.2073 722.109 93.5051C722.323 93.8029 722.443 94.1587 722.451 94.5255C722.459 94.8924 722.357 95.2532 722.156 95.5606C721.891 95.9632 721.476 96.2438 721.004 96.3408C720.532 96.4378 720.04 96.3431 719.637 96.0777L719.789 96.1778ZM731.933 104.185C731.608 104.014 731.342 103.75 731.17 103.425C730.998 103.101 730.929 102.732 730.97 102.368C731.012 102.003 731.163 101.66 731.404 101.383C731.644 101.105 731.963 100.907 732.318 100.815C732.673 100.722 733.048 100.739 733.393 100.864C733.738 100.988 734.038 101.214 734.252 101.512C734.467 101.81 734.586 102.166 734.594 102.532C734.603 102.899 734.5 103.26 734.3 103.568C734.034 103.97 733.62 104.251 733.147 104.348C732.675 104.445 732.183 104.35 731.781 104.085L731.933 104.185Z" fill="#E2F0FA"/>
<path d="M74.6449 46.4507C73.4884 47.9944 71.766 49.0154 69.8567 49.2891C67.9473 49.5628 66.0075 49.0669 64.4638 47.9104L49.9129 37.0086C48.3692 35.852 47.3482 34.1296 47.0745 32.2203C46.8008 30.311 47.2967 28.3711 48.4533 26.8275L74.6449 46.4507ZM81.186 37.7202L54.9943 18.0969C54.2225 17.5186 53.2526 17.2707 52.2979 17.4075C51.3433 17.5444 50.4821 18.0549 49.9038 18.8267C49.3255 19.5986 49.0776 20.5685 49.2144 21.5232C49.3513 22.4778 49.8618 23.339 50.6336 23.9173L76.8253 43.5405C77.5971 44.1188 78.567 44.3668 79.5217 44.2299C80.4764 44.093 81.3375 43.5825 81.9158 42.8107C82.4941 42.0389 82.7421 41.0689 82.6052 40.1143C82.4683 39.1596 81.9578 38.2984 81.186 37.7202ZM85.6877 22.9179L67.9647 9.63951C66.8378 8.79524 65.4217 8.43319 64.0279 8.63302C62.6341 8.83285 61.3767 9.57818 60.5325 10.705L57.1747 15.1867L83.3664 34.81L86.7023 30.3574C87.1242 29.8023 87.4326 29.1695 87.6099 28.4952C87.7873 27.8209 87.83 27.1183 87.7358 26.4275C87.6416 25.7367 87.4122 25.0712 87.0608 24.469C86.7094 23.8668 86.2428 23.3398 85.6877 22.9179ZM66.776 17.8365C66.4618 17.6469 66.2123 17.3667 66.0603 17.0327C65.9084 16.6986 65.861 16.3264 65.9245 15.965C65.988 15.6036 66.1594 15.2698 66.4162 15.0076C66.6729 14.7454 67.003 14.567 67.363 14.4959C67.723 14.4248 68.0961 14.4643 68.4333 14.6093C68.7704 14.7542 69.0558 14.9977 69.252 15.3079C69.4481 15.618 69.5458 15.9803 69.5322 16.347C69.5186 16.7137 69.3944 17.0677 69.1758 17.3625C68.8867 17.7485 68.4561 18.0037 67.9787 18.0721C67.5014 18.1406 67.0164 18.0166 66.6305 17.7274L66.776 17.8365ZM78.4168 26.5579C78.1026 26.3683 77.853 26.0881 77.7011 25.7541C77.5491 25.4201 77.5017 25.0479 77.5652 24.6865C77.6288 24.325 77.8001 23.9913 78.0569 23.7291C78.3136 23.4669 78.6437 23.2885 79.0037 23.2174C79.3637 23.1463 79.7368 23.1858 80.074 23.3307C80.4111 23.4756 80.6965 23.7192 80.8927 24.0293C81.0888 24.3395 81.1865 24.7017 81.1729 25.0684C81.1593 25.4352 81.0351 25.7892 80.8165 26.084C80.5274 26.4699 80.0968 26.7251 79.6195 26.7936C79.1421 26.862 78.6572 26.738 78.2713 26.4489L78.4168 26.5579Z" fill="#E2F0FA"/>
<path d="M788.463 830.175C787.306 831.719 785.584 832.74 783.674 833.013C781.765 833.287 779.825 832.791 778.281 831.635L763.731 820.733C762.187 819.576 761.166 817.854 760.892 815.944C760.618 814.035 761.114 812.095 762.271 810.552L788.463 830.175ZM795.004 821.444L768.812 801.821C768.04 801.243 767.07 800.995 766.116 801.132C765.161 801.269 764.3 801.779 763.721 802.551C763.143 803.323 762.895 804.293 763.032 805.247C763.169 806.202 763.679 807.063 764.451 807.641L790.643 827.265C791.415 827.843 792.385 828.091 793.339 827.954C794.294 827.817 795.155 827.307 795.733 826.535C796.312 825.763 796.56 824.793 796.423 823.838C796.286 822.884 795.775 822.023 795.004 821.444ZM799.505 806.642L781.782 793.364C780.655 792.519 779.239 792.157 777.846 792.357C776.452 792.557 775.194 793.302 774.35 794.429L770.992 798.911L797.184 818.534L800.52 814.082C800.942 813.526 801.25 812.894 801.428 812.219C801.605 811.545 801.648 810.843 801.553 810.152C801.459 809.461 801.23 808.795 800.878 808.193C800.527 807.591 800.06 807.064 799.505 806.642V806.642ZM780.594 801.561C780.279 801.371 780.03 801.091 779.878 800.757C779.726 800.423 779.679 800.051 779.742 799.689C779.806 799.328 779.977 798.994 780.234 798.732C780.491 798.47 780.821 798.291 781.181 798.22C781.541 798.149 781.914 798.189 782.251 798.333C782.588 798.478 782.873 798.722 783.07 799.032C783.266 799.342 783.363 799.704 783.35 800.071C783.336 800.438 783.212 800.792 782.993 801.087C782.704 801.473 782.274 801.728 781.796 801.796C781.319 801.865 780.834 801.741 780.448 801.452L780.594 801.561V801.561ZM792.234 810.282C791.92 810.093 791.671 809.812 791.519 809.478C791.367 809.144 791.319 808.772 791.383 808.411C791.446 808.049 791.618 807.715 791.875 807.453C792.131 807.191 792.461 807.013 792.821 806.942C793.181 806.87 793.554 806.91 793.892 807.055C794.229 807.2 794.514 807.443 794.71 807.754C794.906 808.064 795.004 808.426 794.991 808.793C794.977 809.159 794.853 809.513 794.634 809.808C794.345 810.194 793.914 810.449 793.437 810.518C792.96 810.586 792.475 810.462 792.089 810.173L792.234 810.282V810.282Z" fill="#E2F0FA"/>
<path d="M552.468 204.51L570.457 235.94L558.085 245.286L532.676 219.237L547.781 207.826L542.991 195.278L545.068 194.509L549.686 206.578L552.468 204.51ZM543.562 237.284C543.562 237.284 541.217 233.218 534.801 238.064L524.584 245.783C518.177 250.623 521.438 253.997 521.438 253.997L543.562 237.284ZM527.756 262.36C527.756 262.36 530.11 266.419 536.517 261.579L546.735 253.86C553.151 249.013 549.88 245.646 549.88 245.646L527.756 262.36ZM547.516 244.513C548.566 243.72 548.632 242.044 547.66 240.757C546.682 239.463 545.056 239.074 544.006 239.867L523.713 255.197C522.668 255.987 522.592 257.661 523.57 258.956C524.542 260.243 526.178 260.633 527.223 259.843L547.516 244.513Z" fill="#E2F0FA"/>
<path d="M188.071 219.301L168.354 249.676L154.382 242.95L165.922 208.439L182.978 216.65L191.945 206.65L193.579 208.145L184.96 217.773L188.071 219.301ZM154.854 226.375C154.854 226.375 157.397 222.429 150.152 218.941L138.614 213.387C131.38 209.904 129.871 214.348 129.871 214.348L154.854 226.375ZM125.325 223.791C125.325 223.791 122.793 227.742 130.027 231.225L141.566 236.78C148.811 240.267 150.309 235.819 150.309 235.819L125.325 223.791ZM150.234 233.198C151.42 233.769 152.94 233.061 153.64 231.608C154.344 230.146 153.946 228.522 152.76 227.952L129.845 216.92C128.664 216.352 127.141 217.05 126.437 218.512C125.738 219.965 126.139 221.598 127.319 222.166L150.234 233.198Z" fill="#E2F0FA"/>
<path d="M470.876 473.079L466.285 509H450.779L446.207 472.9H465.137L468.879 460L471 460.638L467.41 473.052L470.876 473.079ZM444.015 493.861C444.015 493.861 444.595 489.203 436.554 489.203H423.749C415.72 489.203 416.288 493.861 416.288 493.861H444.015ZM416.288 504.342C416.288 504.342 415.72 509 423.749 509H436.555C444.596 509 444.016 504.342 444.016 504.342H416.288ZM442.812 502.013C444.128 502.013 445.191 500.716 445.191 499.103C445.191 497.48 444.128 496.19 442.812 496.19H417.38C416.07 496.19 415 497.48 415 499.103C415 500.716 416.07 502.013 417.38 502.013H442.812Z" fill="#E2F0FA"/>
<path d="M284.876 828.079L280.285 864H264.779L260.207 827.9H279.137L282.879 815L285 815.638L281.41 828.052L284.876 828.079V828.079ZM258.015 848.861C258.015 848.861 258.595 844.203 250.554 844.203H237.749C229.72 844.203 230.288 848.861 230.288 848.861H258.015ZM230.288 859.342C230.288 859.342 229.72 864 237.749 864H250.555C258.596 864 258.016 859.342 258.016 859.342H230.288ZM256.812 857.013C258.128 857.013 259.191 855.716 259.191 854.103C259.191 852.48 258.128 851.19 256.812 851.19H231.38C230.07 851.19 229 852.48 229 854.103C229 855.716 230.07 857.013 231.38 857.013H256.812Z" fill="#E2F0FA"/>
<path d="M57.3137 434.602L62.841 470.391L47.9402 474.682L33.558 441.256L51.7493 436.018L51.7756 422.587L53.9903 422.613L53.9754 435.536L57.3137 434.602ZM37.2512 462.006C37.2512 462.006 36.5195 457.369 28.7928 459.594L16.4874 463.137C8.77183 465.358 10.6067 469.677 10.6067 469.677L37.2512 462.006ZM13.5066 479.749C13.5066 479.749 14.2494 484.382 21.965 482.161L34.2715 478.617C41.9983 476.393 40.1522 472.077 40.1522 472.077L13.5066 479.749ZM38.3508 470.172C39.6154 469.808 40.2778 468.267 39.8316 466.717C39.3827 465.158 38.0044 464.212 36.7397 464.577L12.3004 471.613C11.0414 471.976 10.3704 473.512 10.8192 475.071C11.2655 476.62 12.6525 477.571 13.9115 477.209L38.3508 470.172Z" fill="#E2F0FA"/>
<path d="M387.675 46.7336L361.014 71.2403L349.158 61.2466L368.929 30.6972L383.403 42.8978L394.577 35.4462L395.788 37.3011L385.042 44.4792L387.675 46.7336ZM353.743 45.3117C353.743 45.3117 357.188 42.1238 351.04 36.9416L341.249 28.6885C335.11 23.5138 332.543 27.4416 332.543 27.4416L353.743 45.3117ZM325.788 35.4553C325.788 35.4553 322.351 38.6507 328.49 43.8254L338.282 52.0792C344.43 57.2614 346.989 53.3261 346.989 53.3261L325.788 35.4553ZM347.569 50.7693C348.576 51.6175 350.224 51.3106 351.264 50.0773C352.309 48.837 352.328 47.1654 351.322 46.3173L331.877 29.9263C330.875 29.0819 329.225 29.3789 328.18 30.6193C327.14 31.8525 327.122 33.5339 328.124 34.3783L347.569 50.7693Z" fill="#E2F0FA"/>
<defs>
<clipPath id="clip0">
<rect width="40" height="40" fill="white" transform="translate(295.189 278.421) rotate(-16.3077)"/>
</clipPath>
<clipPath id="clip1">
<rect width="40" height="40" fill="white" transform="translate(768.659 358.224) rotate(34.1163)"/>
</clipPath>
<clipPath id="clip2">
<rect width="40" height="40" fill="white" transform="translate(11 752)"/>
</clipPath>
</defs>
</svg>
